<svg xmlns="http://www.w3.org/2000/svg" xmlns:xlink="http://www.w3.org/1999/xlink" viewBox="0 0 141.97 29.5"><defs><style>.cls-1{fill:url(#linear-gradient);}.cls-2{fill:url(#linear-gradient-2);}.cls-3{fill:url(#linear-gradient-3);}.cls-4{fill:url(#Orange_Yellow_2);}.cls-5{fill:url(#Orange_Yellow_2-2);}.cls-6{fill:url(#Orange_Yellow_2-3);}.cls-7{fill:#ef4238;}</style><linearGradient id="linear-gradient" x1="21.9" y1="7.76" x2="40.02" y2="7.76" gradientTransform="translate(-7.76 20.38) rotate(-4.35)" gradientUnits="userSpaceOnUse"><stop offset="0" stop-color="#f6ed4a"/><stop offset="0.05" stop-color="#f7e03a"/><stop offset="0.12" stop-color="#f9d127"/><stop offset="0.2" stop-color="#fac81c"/><stop offset="0.28" stop-color="#fac518"/><stop offset="0.67" stop-color="#f08f43"/><stop offset="1" stop-color="#eb683a"/></linearGradient><linearGradient id="linear-gradient-2" x1="23.58" y1="4.55" x2="37.33" y2="4.55" xlink:href="#linear-gradient"/><linearGradient id="linear-gradient-3" x1="22.78" y1="6.09" x2="38.37" y2="6.09" xlink:href="#linear-gradient"/><linearGradient id="Orange_Yellow_2" y1="12.77" x2="41.57" y2="12.77" gradientUnits="userSpaceOnUse"><stop offset="0" stop-color="#f6ed4a"/><stop offset="0.05" stop-color="#f7e03a"/><stop offset="0.12" stop-color="#f9d127"/><stop offset="0.2" stop-color="#fac81c"/><stop offset="0.28" stop-color="#fac518"/><stop offset="0.67" stop-color="#f08f43"/><stop offset="0.89" stop-color="#eb683a"/><stop offset="1" stop-color="#e64039"/></linearGradient><linearGradient id="Orange_Yellow_2-2" x1="3.25" y1="13.93" x2="38.09" y2="13.93" xlink:href="#Orange_Yellow_2"/><linearGradient id="Orange_Yellow_2-3" x1="5.91" y1="14.81" x2="34.94" y2="14.81" xlink:href="#Orange_Yellow_2"/></defs><title>Asset 1</title><g id="Layer_2" data-name="Layer 2"><g id="Layer_1-2" data-name="Layer 1"><path class="cls-1" d="M29.87,24.72a14,14,0,0,0-7.44,1.37,14.19,14.19,0,0,1-4.64,1.15h-.17a2.29,2.29,0,0,1-2.46-1.6,4,4,0,0,1,0-1.66s-.4,1.21-.45,1.49c-.43,2.49,1.32,3.18,2.93,3.17,0,0,.78,0,1.07-.06a16.24,16.24,0,0,0,3.13-.83c2.62-1,4.12-2,7.8-2.41,1.35-.14,3.08-.19,3.08-.19A24.92,24.92,0,0,0,29.87,24.72Z"/><path class="cls-2" d="M27.12,22c-2.05-.43-3-.06-5.38.9a10.18,10.18,0,0,1-3.37.84h-.12a1.69,1.69,0,0,1-1.8-1.16,3,3,0,0,1,0-1.21s-.29.88-.33,1.08c-.31,1.81,1,2.31,2.14,2.31,0,0,.56,0,.77,0a11.87,11.87,0,0,0,2.27-.6c1.91-.72,3.54-1.67,5.71-1.57a18.32,18.32,0,0,1,2.84.45A23.1,23.1,0,0,0,27.12,22Z"/><path class="cls-3" d="M28,23.38c-2.34-.49-3.47-.06-6.16,1a12,12,0,0,1-3.86,1h-.14A1.93,1.93,0,0,1,15.82,24a3.42,3.42,0,0,1,0-1.38s-.33,1-.37,1.24c-.36,2.07,1.1,2.64,2.44,2.64,0,0,.65,0,.89-.05a14.15,14.15,0,0,0,2.61-.69c2.18-.82,4-1.86,6.53-1.8,1,0,3.07.17,3.07.17S29,23.58,28,23.38Z"/><path class="cls-4" d="M4.9,17.63C3.32,16.27,1.78,14.17,2.05,12c.24-1.93,1.8-3.21,3.56-4.46a22.56,22.56,0,0,1,5.55-2.72,37.39,37.39,0,0,1,8.57-1.69c5-.38,9.53.45,12,1.75,3.77,2,6.83,5.55,7.25,9.9.58,6-6,10.2-6,10.2s2.58-1.19,3.42-1.76c3-2,4.65-4,5.06-7.45.56-4.63-2.32-8.84-6-11.47C31,1.1,25,.21,19.61.68a35.26,35.26,0,0,0-8.88,1.78A26.73,26.73,0,0,0,4.27,5.51C2.15,7,0,9.05,0,11.67c0,3.4,5.14,6.17,4.9,6Z"/><path class="cls-5" d="M7.36,18.12C6,17,4.74,15.22,5,13.41c.2-1.62,1.51-2.7,3-3.75a19.39,19.39,0,0,1,4.66-2.27A31.29,31.29,0,0,1,19.79,6c4.19-.32,8,.38,10.06,1.47a10.84,10.84,0,0,1,6.07,8.29c.49,5.06-4.65,8.31-4.65,8.31a21.3,21.3,0,0,0,2.52-1.24c2.47-1.68,3.89-3.31,4.24-6.24.46-3.87-2-7.4-5-9.61-3.77-2.68-8.79-3.42-13.31-3a30,30,0,0,0-7.44,1.49A22.16,22.16,0,0,0,6.83,8c-1.78,1.24-3.57,3-3.58,5.16,0,2.85,4.31,5.17,4.11,5Z"/><path class="cls-6" d="M9.33,18.59c-1.1-.95-2.18-2.42-2-3.93.17-1.35,1.26-2.24,2.49-3.12a16.09,16.09,0,0,1,3.88-1.9,26.4,26.4,0,0,1,6-1.18,16.87,16.87,0,0,1,8.38,1.23,9,9,0,0,1,5.06,6.91A7,7,0,0,1,30.23,23a2.71,2.71,0,0,0,1.12-.46c2.07-1.41,3.25-2.77,3.54-5.2.39-3.23-1.62-6.17-4.2-8C27.55,7.05,23.36,6.43,19.6,6.75A25.19,25.19,0,0,0,13.4,8a18.2,18.2,0,0,0-4.5,2.13c-1.49,1-3,2.46-3,4.3,0,2.37,3.59,4.31,3.42,4.16Z"/><path class="cls-7" d="M47.88,6.3a2,2,0,0,1-1.74,1,2.34,2.34,0,0,1-2.26-2.52,2.35,2.35,0,0,1,2.26-2.5,2,2,0,0,1,1.69.88V2.37l.56.1V7.15H48Zm0-1.56a1.71,1.71,0,1,0-3.39,0,1.79,1.79,0,0,0,1.68,2A1.81,1.81,0,0,0,47.85,4.74Z"/><path class="cls-7" d="M49.83,2.37h.56V5.31c0,.88.39,1.42,1.13,1.42.9,0,1.59-.73,1.59-2.1V2.37h.56V7.15h-.46l-.09-.84a1.78,1.78,0,0,1-1.69,1,1.61,1.61,0,0,1-1.6-1.81Z"/><path class="cls-7" d="M55,6.39a2.65,2.65,0,0,0,1.21.34.9.9,0,0,0,1-.81c0-1.08-2.19-.79-2.19-2.35a1.32,1.32,0,0,1,1.43-1.32,2.76,2.76,0,0,1,1.2.29L57.43,3a2.32,2.32,0,0,0-1-.24.77.77,0,0,0-.85.78c0,1.05,2.19.82,2.19,2.35a1.39,1.39,0,0,1-1.56,1.35,3,3,0,0,1-1.38-.37Z"/><path class="cls-7" d="M59,2.85h-.69V2.37H59V1.16l.55-.25V2.37h1.19v.48H59.59v2.9c0,.63.27,1,.89,1A1.82,1.82,0,0,0,61,6.64l.12.53a3.06,3.06,0,0,1-.73.1A1.32,1.32,0,0,1,59,5.8Z"/><path class="cls-7" d="M62.1,2.47l.47-.1.08.88a1.92,1.92,0,0,1,1.76-1v.54a1.88,1.88,0,0,0-1.75,2V7.15H62.1Z"/><path class="cls-7" d="M69.09,6.3a2,2,0,0,1-1.75,1,2.34,2.34,0,0,1-2.26-2.52,2.36,2.36,0,0,1,2.26-2.5,2,2,0,0,1,1.7.88V2.37l.56.1V7.15h-.42Zm0-1.56a1.72,1.72,0,1,0-3.4,0,1.79,1.79,0,0,0,1.68,2A1.81,1.81,0,0,0,69.06,4.74Z"/><path class="cls-7" d="M71.09.23,71.64,0V6.33c0,.3.13.44.42.44l-.1.49c-.49,0-.87-.23-.87-.79Z"/><path class="cls-7" d="M77,6.3a2,2,0,0,1-1.75,1A2.34,2.34,0,0,1,73,4.75a2.35,2.35,0,0,1,2.25-2.5,2,2,0,0,1,1.7.88V2.37l.56.1V7.15h-.41Zm0-1.56a1.71,1.71,0,1,0-3.39,0,1.79,1.79,0,0,0,1.67,2A1.81,1.81,0,0,0,76.93,4.74Z"/><path class="cls-7" d="M78.78,6.39A2.65,2.65,0,0,0,80,6.73a.9.9,0,0,0,1-.81c0-1.08-2.19-.79-2.19-2.35a1.32,1.32,0,0,1,1.43-1.32,2.76,2.76,0,0,1,1.2.29L81.23,3a2.32,2.32,0,0,0-1-.24.77.77,0,0,0-.85.78c0,1.05,2.19.82,2.19,2.35A1.39,1.39,0,0,1,80,7.27a3,3,0,0,1-1.38-.37Z"/><path class="cls-7" d="M83,.39a.39.39,0,0,1,.41.38.41.41,0,0,1-.41.4.39.39,0,0,1-.4-.4A.37.37,0,0,1,83,.39Zm-.28,2h.56V7.15h-.56Z"/><path class="cls-7" d="M88.49,6.3a2,2,0,0,1-1.75,1,2.34,2.34,0,0,1-2.26-2.52,2.36,2.36,0,0,1,2.26-2.5,2,2,0,0,1,1.7.88V2.37l.56.1V7.15h-.42Zm0-1.56a1.72,1.72,0,1,0-3.4,0,1.79,1.79,0,0,0,1.68,2A1.81,1.81,0,0,0,88.46,4.74Z"/><path class="cls-7" d="M90.49,2.47l.46-.1.08.85a1.77,1.77,0,0,1,1.69-1,1.61,1.61,0,0,1,1.6,1.81V7.15h-.56V4.2c0-.87-.38-1.41-1.12-1.41-.91,0-1.6.73-1.6,2.1V7.15h-.55Z"/><path class="cls-7" d="M48,17a3.67,3.67,0,0,1-1.65.35,2.49,2.49,0,0,1-2.59-2.57,2.47,2.47,0,0,1,2.59-2.55,4.15,4.15,0,0,1,1.67.36l-.31.87a3.78,3.78,0,0,0-1.34-.28,1.48,1.48,0,0,0-1.49,1.6,1.49,1.49,0,0,0,1.49,1.61,3.46,3.46,0,0,0,1.34-.3Z"/><path class="cls-7" d="M48.69,14.77a2.51,2.51,0,1,1,2.51,2.56A2.5,2.5,0,0,1,48.69,14.77Zm3.9,0a1.41,1.41,0,1,0-2.78,0,1.4,1.4,0,1,0,2.78,0Z"/><path class="cls-7" d="M55.38,18.16a3.41,3.41,0,0,0,1.46.32A1.29,1.29,0,0,0,58.19,17v-.45a1.82,1.82,0,0,1-1.43.62,2.33,2.33,0,0,1-2.28-2.5,2.34,2.34,0,0,1,2.28-2.49,1.86,1.86,0,0,1,1.47.66l.06-.54,1,.1v4.71a2.27,2.27,0,0,1-2.43,2.3A3.8,3.8,0,0,1,55.05,19Zm2.88-3.46a1.41,1.41,0,0,0-1.38-1.54c-.8,0-1.28.67-1.28,1.54s.46,1.55,1.28,1.55A1.41,1.41,0,0,0,58.26,14.7Z"/><path class="cls-7" d="M60.48,12.43l.93-.1.09.63a1.79,1.79,0,0,1,1.55-.75c1,0,1.61.71,1.61,1.86V17.2H63.58v-3c0-.6-.22-1.05-.75-1.05-.79,0-1.27.67-1.27,1.8V17.2H60.48Z"/><path class="cls-7" d="M66.35,10.21a.65.65,0,0,1,.66.63.66.66,0,0,1-.66.64.64.64,0,1,1,0-1.27Zm-.54,2.12h1.08V17.2H65.81Z"/><path class="cls-7" d="M68.29,13.08h-.65v-.75h.65V11.21L69.37,11v1.37h1.12v.75H69.37v2.59c0,.47.16.7.61.7a2.5,2.5,0,0,0,.65-.1l.19.91a2.77,2.77,0,0,1-.89.15,1.46,1.46,0,0,1-1.64-1.57Z"/><path class="cls-7" d="M72.1,10.21a.65.65,0,0,1,.66.63.66.66,0,0,1-.66.64.64.64,0,1,1,0-1.27Zm-.54,2.12h1.08V17.2H71.56Z"/><path class="cls-7" d="M73.37,12.33h1.12l.84,2.52c.12.35.24.86.35,1.31.1-.46.23-1,.34-1.31l.84-2.52H78L76.27,17.2H75.09Z"/><path class="cls-7" d="M82.57,17a4,4,0,0,1-1.66.35,2.43,2.43,0,0,1-2.55-2.56,2.35,2.35,0,0,1,2.29-2.56c1.5,0,2.24,1.15,2.24,2.74H79.44a1.4,1.4,0,0,0,1.49,1.42,3.47,3.47,0,0,0,1.43-.31ZM81.8,14.2a1.07,1.07,0,0,0-1.15-1,1.15,1.15,0,0,0-1.17,1Z"/><path class="cls-7" d="M86.12,12.43l.92-.1.1.63a1.78,1.78,0,0,1,1.54-.75c1,0,1.61.71,1.61,1.86V17.2H89.21v-3c0-.6-.22-1.05-.75-1.05-.78,0-1.26.67-1.26,1.8V17.2H86.12Z"/><path class="cls-7" d="M95.44,17a4,4,0,0,1-1.66.35,2.43,2.43,0,0,1-2.55-2.56,2.35,2.35,0,0,1,2.29-2.56c1.5,0,2.24,1.15,2.24,2.74H92.31a1.4,1.4,0,0,0,1.49,1.42,3.47,3.47,0,0,0,1.43-.31Zm-.77-2.78a1.07,1.07,0,0,0-1.15-1,1.15,1.15,0,0,0-1.17,1Z"/><path class="cls-7" d="M96.65,12.33h1.08v3c0,.61.23,1.05.76,1.05.77,0,1.26-.66,1.26-1.79V12.33h1.08V17.2H99.9l-.1-.62a1.72,1.72,0,0,1-1.54.75,1.64,1.64,0,0,1-1.61-1.86Z"/><path class="cls-7" d="M102,12.43l.93-.1.12.7a1.71,1.71,0,0,1,1.56-.82v.95c-1,0-1.52.77-1.52,1.88V17.2H102Z"/><path class="cls-7" d="M105.1,14.77a2.51,2.51,0,1,1,2.51,2.56A2.49,2.49,0,0,1,105.1,14.77Zm3.9,0a1.41,1.41,0,1,0-2.78,0,1.4,1.4,0,1,0,2.78,0Z"/><path class="cls-7" d="M111,16a2.85,2.85,0,0,0,1.22.34c.41,0,.67-.22.67-.53,0-.8-2-.61-2-2.22a1.48,1.48,0,0,1,1.62-1.42,3.11,3.11,0,0,1,1.35.32l-.31.85a2.41,2.41,0,0,0-1-.23c-.41,0-.58.19-.58.48,0,.77,2,.7,2,2.24a1.58,1.58,0,0,1-1.74,1.46,3.21,3.21,0,0,1-1.52-.39Z"/><path class="cls-7" d="M119,17a3.6,3.6,0,0,1-1.64.35,2.48,2.48,0,0,1-2.59-2.57,2.47,2.47,0,0,1,2.59-2.55,4.14,4.14,0,0,1,1.66.36l-.3.87a3.79,3.79,0,0,0-1.35-.28,1.48,1.48,0,0,0-1.48,1.6,1.48,1.48,0,0,0,1.48,1.61,3.47,3.47,0,0,0,1.35-.3Z"/><path class="cls-7" d="M120.4,10.21a.64.64,0,1,1,0,1.27.64.64,0,1,1,0-1.27Zm-.54,2.12h1.08V17.2h-1.08Z"/><path class="cls-7" d="M126.14,17a4,4,0,0,1-1.67.35,2.42,2.42,0,0,1-2.54-2.56,2.35,2.35,0,0,1,2.29-2.56c1.5,0,2.24,1.15,2.24,2.74H123a1.39,1.39,0,0,0,1.49,1.42,3.5,3.5,0,0,0,1.43-.31Zm-.77-2.78a1.07,1.07,0,0,0-1.15-1,1.15,1.15,0,0,0-1.17,1Z"/><path class="cls-7" d="M127.4,12.43l.92-.1.1.63a1.78,1.78,0,0,1,1.54-.75c1,0,1.61.71,1.61,1.86V17.2h-1.08v-3c0-.6-.22-1.05-.75-1.05-.78,0-1.26.67-1.26,1.8V17.2H127.4Z"/><path class="cls-7" d="M136.74,17a3.67,3.67,0,0,1-1.65.35,2.48,2.48,0,0,1-2.58-2.57,2.46,2.46,0,0,1,2.58-2.55,4.15,4.15,0,0,1,1.67.36l-.31.87a3.7,3.7,0,0,0-1.34-.28,1.48,1.48,0,0,0-1.48,1.6,1.48,1.48,0,0,0,1.48,1.61,3.38,3.38,0,0,0,1.34-.3Z"/><path class="cls-7" d="M141.65,17a4,4,0,0,1-1.66.35,2.43,2.43,0,0,1-2.55-2.56,2.35,2.35,0,0,1,2.29-2.56c1.5,0,2.24,1.15,2.24,2.74h-3.45A1.4,1.4,0,0,0,140,16.37a3.47,3.47,0,0,0,1.43-.31Zm-.77-2.78a1.07,1.07,0,0,0-1.15-1,1.15,1.15,0,0,0-1.17,1Z"/><path class="cls-7" d="M44,26.51a2.72,2.72,0,0,0,1.2.33.9.9,0,0,0,1-.81c0-1.08-2.19-.79-2.19-2.35a1.31,1.31,0,0,1,1.42-1.32,2.87,2.87,0,0,1,1.2.29l-.17.49a2.55,2.55,0,0,0-1-.24.77.77,0,0,0-.84.78c0,1.05,2.18.82,2.18,2.35a1.39,1.39,0,0,1-1.56,1.35A3.15,3.15,0,0,1,43.77,27Z"/><path class="cls-7" d="M47.6,24.88A2.4,2.4,0,1,1,50,27.38,2.42,2.42,0,0,1,47.6,24.88Zm4.21,0a1.82,1.82,0,1,0-3.63,0,1.82,1.82,0,1,0,3.63,0Z"/><path class="cls-7" d="M57.43,27.05a3.61,3.61,0,0,1-1.59.33,2.37,2.37,0,0,1-2.45-2.51,2.38,2.38,0,0,1,2.45-2.51,4.13,4.13,0,0,1,1.6.33l-.17.5a3.88,3.88,0,0,0-1.43-.29,2,2,0,0,0,0,3.94,4,4,0,0,0,1.42-.31Z"/><path class="cls-7" d="M58.87,20.5a.39.39,0,0,1,.41.38.4.4,0,0,1-.41.4.38.38,0,0,1-.4-.4A.37.37,0,0,1,58.87,20.5Zm-.28,2h.56v4.77h-.56Z"/><path class="cls-7" d="M64.3,27.09a3.7,3.7,0,0,1-1.52.29,2.34,2.34,0,0,1-2.38-2.5,2.32,2.32,0,0,1,2.21-2.52c1.5,0,2.12,1.17,2.12,2.49H61a1.8,1.8,0,0,0,1.82,2,3.79,3.79,0,0,0,1.42-.29Zm-.16-2.72a1.47,1.47,0,0,0-1.53-1.47A1.62,1.62,0,0,0,61,24.37Z"/><path class="cls-7" d="M66.08,23h-.69v-.48h.69V21.27l.56-.25v1.47h1.18V23H66.64v2.89c0,.64.27,1,.88,1a1.77,1.77,0,0,0,.56-.08l.12.52a2.55,2.55,0,0,1-.72.1,1.32,1.32,0,0,1-1.4-1.46Z"/><path class="cls-7" d="M69.41,29c.35,0,.61-.22.78-.72l.32-1h-.2l-1.68-4.77h.59L70.44,26c.07.21.16.53.24.8.07-.27.16-.58.23-.8l1.14-3.51h.59l-2,6a1.3,1.3,0,0,1-1.27,1,2,2,0,0,1-.89-.19l.16-.51A1.75,1.75,0,0,0,69.41,29Z"/></g></g></svg>